<svg id="my-svg" version="1.0" xmlns="http://www.w3.org/2000/svg"
 width="256.000000pt" height="256.000000pt" viewBox="0 0 256.000000 256.000000"
 preserveAspectRatio="xMidYMid meet">
<g transform="translate(0.000000,256.000000) scale(0.100000,-0.100000)"
fill="#000000" stroke="none">
<path d="M893 2546 c-94 -31 -165 -89 -215 -175 -16 -28 -33 -42 -59 -50 -50
-15 -125 -84 -155 -142 -13 -27 -27 -76 -31 -109 -6 -58 -8 -62 -53 -95 -112
-82 -169 -230 -140 -365 l13 -59 -30 -35 c-17 -19 -43 -60 -59 -92 -24 -50
-28 -72 -28 -144 -1 -71 4 -96 28 -153 26 -63 27 -70 13 -91 -29 -44 -50 -136
-44 -197 5 -60 44 -159 76 -194 13 -14 20 -42 24 -97 7 -101 48 -189 117 -251
59 -54 102 -75 179 -89 49 -9 61 -16 81 -45 85 -124 271 -190 416 -148 93 26
197 104 242 181 12 19 12 19 24 0 45 -77 149 -155 242 -181 146 -42 331 24
416 148 20 29 32 36 69 41 103 14 219 96 267 187 25 50 44 127 44 185 0 37 5
56 19 68 30 27 71 128 77 193 7 63 -13 153 -43 199 -14 21 -13 28 13 91 24 57
29 82 28 153 0 72 -4 94 -28 144 -16 32 -42 73 -59 92 l-30 35 13 59 c29 135
-28 283 -140 365 -45 33 -47 37 -53 95 -4 33 -18 82 -31 109 -30 58 -105 127
-155 142 -27 8 -43 23 -66 61 -39 65 -94 114 -164 147 -46 22 -70 26 -136 25
-101 0 -157 -25 -237 -105 l-58 -57 -57 57 c-32 31 -80 67 -107 80 -61 28
-165 36 -223 17z m206 -124 c50 -30 105 -103 121 -160 5 -20 10 -131 10 -246
l0 -208 -22 6 c-63 18 -89 18 -108 1 -38 -34 -16 -76 46 -89 17 -4 42 -18 55
-32 l24 -26 3 -495 3 -496 -42 38 c-59 53 -141 88 -217 93 -69 5 -92 -6 -92
-43 0 -31 19 -44 82 -55 79 -12 127 -35 175 -82 61 -60 88 -126 87 -218 0 -92
-32 -167 -98 -228 -48 -44 -137 -82 -195 -82 -99 0 -196 55 -256 145 l-36 55
-53 0 c-94 0 -192 68 -236 165 -7 17 -14 66 -14 111 -1 78 -3 82 -38 123 -38
45 -68 115 -68 161 0 34 29 132 38 128 4 -2 31 -16 61 -32 63 -33 161 -47 186
-26 19 15 20 54 2 69 -8 6 -37 15 -65 21 -99 18 -167 75 -202 167 -39 106 -18
194 67 277 l57 55 -22 68 c-27 84 -28 117 -2 186 37 100 128 166 228 167 68 0
117 -21 170 -73 43 -42 82 -124 82 -174 0 -31 26 -63 50 -63 9 0 25 9 35 20
41 45 -16 213 -99 293 -67 64 -127 91 -213 95 -67 4 -73 6 -73 26 0 36 43 108
83 140 36 29 45 31 115 31 71 0 80 -2 124 -33 33 -24 52 -32 67 -27 30 9 44
40 31 65 -16 30 -87 78 -132 90 -37 10 -37 12 -23 33 60 92 206 120 304 59z
m536 27 c48 -13 108 -52 130 -85 15 -23 14 -23 -23 -34 -45 -12 -116 -60 -132
-90 -13 -25 1 -56 31 -65 15 -5 34 3 67 27 44 31 53 33 124 33 70 0 79 -2 115
-31 40 -32 83 -104 83 -140 0 -20 -6 -22 -72 -26 -87 -4 -147 -31 -214 -95
-83 -80 -140 -248 -99 -293 10 -11 25 -20 33 -20 25 0 52 31 52 61 0 51 38
133 82 176 53 52 102 73 170 73 100 -1 191 -67 228 -167 26 -69 25 -102 -2
-186 l-22 -68 57 -55 c85 -83 106 -171 67 -277 -35 -92 -103 -149 -202 -167
-28 -6 -57 -15 -65 -21 -18 -15 -17 -54 2 -69 25 -21 123 -7 186 26 30 16 57
30 61 32 9 4 38 -94 38 -128 0 -46 -30 -116 -68 -161 -36 -42 -37 -45 -37
-123 0 -65 -5 -90 -23 -126 -49 -93 -117 -140 -218 -148 l-65 -5 -35 -53 c-59
-89 -157 -144 -255 -144 -58 0 -147 38 -195 82 -67 62 -99 136 -99 228 1 92
27 159 88 218 48 47 96 70 175 82 63 11 82 24 82 55 0 37 -23 48 -92 43 -76
-5 -158 -40 -217 -93 l-42 -38 3 496 3 495 24 26 c13 14 38 28 55 32 62 13 84
55 46 89 -19 18 -45 17 -108 -1 l-23 -7 3 229 3 229 31 55 c35 62 84 105 140
125 48 17 77 18 129 4z"/>
<path d="M992 2128 c-15 -15 -15 -51 0 -66 7 -7 24 -12 38 -12 31 0 50 17 50
45 0 28 -19 45 -50 45 -14 0 -31 -5 -38 -12z"/>
<path d="M545 1710 c-40 -44 9 -194 90 -275 45 -45 132 -95 168 -95 27 0 20
-19 -21 -60 -25 -26 -51 -41 -77 -45 -69 -13 -95 -54 -57 -88 60 -55 228 36
264 143 13 39 18 44 59 55 25 6 66 23 92 38 71 42 86 84 42 113 -24 15 -27 15
-72 -14 -27 -17 -69 -36 -95 -43 -144 -39 -308 85 -308 232 0 28 -27 59 -52
59 -8 0 -23 -9 -33 -20z"/>
<path d="M845 992 c-101 -35 -187 -100 -242 -183 -22 -33 -24 -43 -15 -63 6
-14 21 -27 33 -31 18 -6 33 5 90 67 76 84 131 114 231 128 33 5 66 14 74 21
17 14 18 51 2 67 -17 17 -115 14 -173 -6z"/>
<path d="M543 599 c-17 -17 -16 -54 0 -68 8 -6 37 -15 66 -21 66 -12 86 -23
139 -73 44 -43 82 -124 82 -176 0 -30 27 -61 52 -61 8 0 23 9 33 20 14 16 16
29 11 73 -15 117 -98 234 -203 287 -56 28 -161 39 -180 19z"/>
<path d="M1492 2128 c-7 -7 -12 -21 -12 -33 0 -28 19 -45 50 -45 31 0 50 17
50 45 0 28 -19 45 -50 45 -14 0 -31 -5 -38 -12z"/>
<path d="M1947 1712 c-10 -10 -17 -30 -17 -44 0 -88 -81 -193 -171 -223 -81
-27 -154 -14 -247 46 -30 20 -34 20 -57 5 -44 -29 -29 -71 42 -113 26 -15 67
-32 92 -38 41 -11 46 -16 59 -55 36 -108 211 -201 265 -142 35 38 10 74 -58
87 -26 4 -52 19 -77 45 -41 41 -48 60 -20 60 35 0 122 50 167 95 81 81 130
231 90 275 -23 25 -47 25 -68 2z"/>
<path d="M1542 998 c-16 -16 -15 -53 2 -67 8 -7 42 -16 74 -21 97 -13 149 -42
229 -127 67 -71 75 -75 97 -65 37 17 42 47 13 91 -79 119 -222 201 -352 201
-28 0 -56 -5 -63 -12z"/>
<path d="M1875 598 c-123 -45 -224 -173 -241 -305 -5 -44 -3 -57 11 -73 10
-11 26 -20 35 -20 24 0 50 32 50 63 0 50 39 132 82 174 53 50 73 61 139 73 29
6 58 15 66 21 16 14 17 51 1 67 -15 15 -102 14 -143 0z"/>
</g>
</svg>
