<?xml version="1.0" standalone="no"?>
<svg version="1.0" xmlns="http://www.w3.org/2000/svg"
 width="256.000000pt" height="256.000000pt" viewBox="0 0 256.000000 256.000000"
 preserveAspectRatio="xMidYMid meet">
<g transform="translate(0.000000,256.000000) scale(0.100000,-0.100000)"
fill="#000000" stroke="none">
<path d="M216 2537 c-80 -45 -76 -7 -76 -760 0 -739 -2 -713 64 -760 31 -22
36 -22 429 -25 l398 -3 -5 -32 c-3 -18 -8 -72 -11 -120 -3 -49 -9 -95 -12
-103 -4 -11 -26 -14 -92 -14 -85 0 -111 -8 -111 -36 0 -7 7 -20 16 -28 14 -14
70 -16 464 -16 394 0 450 2 464 16 9 8 16 21 16 28 0 28 -26 36 -111 36 -66 0
-88 3 -92 14 -3 8 -9 54 -12 103 -3 48 -8 102 -11 120 l-5 32 398 3 c393 3
398 3 429 25 66 47 64 21 64 757 0 649 -1 668 -20 706 -13 26 -34 47 -60 60
-39 20 -56 20 -1062 20 l-1023 0 -39 -23z m2110 -78 c18 -20 19 -46 22 -565
l3 -544 -51 0 -50 0 0 276 c0 281 -4 314 -38 314 -40 0 -42 -14 -42 -307 l0
-283 -890 0 -890 0 2 483 3 482 885 0 885 0 3 -124 c3 -127 10 -151 43 -151
33 0 41 35 37 172 -3 128 -3 130 -31 154 l-28 24 -909 0 -909 0 -28 -24 -28
-24 -3 -496 -3 -496 -50 0 -50 0 3 544 c3 519 4 545 22 565 l19 21 1027 0
1027 0 19 -21z m19 -1267 c-1 -72 -4 -85 -23 -105 l-23 -22 -1019 0 -1019 0
-22 22 c-17 16 -23 37 -27 91 -2 39 -2 78 1 86 6 15 113 16 1069 14 l1063 -3
0 -83z m-881 -299 c4 -54 9 -115 13 -135 l6 -38 -203 0 -203 0 6 38 c4 20 9
81 13 135 l7 97 177 0 177 0 7 -97z"/>
<path d="M1003 2023 c-236 -269 -344 -404 -341 -426 2 -16 10 -22 30 -22 23 0
58 36 227 235 111 129 201 242 201 251 0 18 -19 39 -36 39 -7 0 -44 -35 -81
-77z"/>
<path d="M720 1930 c-69 -77 -78 -115 -28 -115 20 0 41 16 87 69 63 72 69 84
49 104 -24 24 -47 11 -108 -58z"/>
<path d="M1182 1198 c-6 -6 -12 -20 -12 -29 0 -32 25 -40 115 -37 71 2 90 6
99 21 8 12 8 22 0 35 -9 14 -28 18 -100 20 -61 2 -93 -1 -102 -10z"/>
<path d="M377 498 c-32 -30 -151 -403 -141 -443 14 -58 -40 -55 1044 -55 1084
0 1030 -3 1044 55 10 40 -109 413 -141 443 l-24 22 -653 0 c-494 0 -655 -3
-664 -12 -18 -18 -14 -46 7 -58 13 -6 236 -10 654 -10 l635 0 50 -157 c28 -87
53 -168 57 -180 l6 -23 -971 0 -971 0 6 23 c4 12 29 93 57 180 l50 157 135 0
c74 0 143 5 154 10 23 13 25 55 3 64 -9 3 -83 6 -164 6 -140 0 -150 -1 -173
-22z"/>
<path d="M613 344 c-12 -31 11 -49 63 -49 48 0 49 1 49 30 0 29 -1 30 -53 33
-42 2 -54 0 -59 -14z"/>
<path d="M819 344 c-9 -11 -10 -20 -2 -32 14 -24 102 -24 116 0 17 27 -9 48
-58 48 -27 0 -47 -6 -56 -16z"/>
<path d="M1024 346 c-14 -37 0 -51 50 -51 52 0 75 18 63 49 -8 22 -105 23
-113 2z"/>
<path d="M1223 344 c-11 -29 11 -49 58 -52 50 -4 75 17 58 49 -13 26 -106 27
-116 3z"/>
<path d="M1431 346 c-9 -11 -10 -20 -1 -35 8 -16 20 -21 54 -21 49 0 71 18 61
50 -5 16 -15 20 -54 20 -30 0 -53 -6 -60 -14z"/>
<path d="M1637 353 c-4 -3 -7 -17 -7 -29 0 -17 7 -25 24 -30 58 -14 107 12 93
50 -5 12 -19 16 -55 16 -27 0 -52 -3 -55 -7z"/>
<path d="M1834 346 c-14 -37 0 -51 50 -51 52 0 75 18 63 49 -8 22 -105 23
-113 2z"/>
<path d="M620 215 c-31 -37 23 -78 78 -59 30 10 43 51 20 65 -21 14 -85 10
-98 -6z"/>
<path d="M820 215 c-17 -21 -3 -52 27 -60 60 -15 113 24 83 60 -16 20 -94 20
-110 0z"/>
<path d="M1032 221 c-23 -14 -10 -55 21 -65 54 -19 108 22 77 59 -13 16 -77
20 -98 6z"/>
<path d="M1232 218 c-20 -20 -14 -48 14 -58 38 -15 62 -12 84 10 32 32 11 60
-43 60 -24 0 -48 -5 -55 -12z"/>
<path d="M1429 208 c-10 -18 -8 -24 11 -40 34 -28 95 -20 105 14 10 30 -13 48
-61 48 -34 0 -46 -5 -55 -22z"/>
<path d="M1640 215 c-31 -37 23 -78 77 -59 31 11 41 37 23 59 -16 19 -84 19
-100 0z"/>
<path d="M1842 221 c-23 -14 -10 -55 21 -65 54 -19 108 22 77 59 -13 16 -77
20 -98 6z"/>
</g>
</svg>
