<?xml version="1.0" standalone="no"?>
<svg version="1.0" xmlns="http://www.w3.org/2000/svg"
 width="256.000000pt" height="256.000000pt" viewBox="0 0 256.000000 256.000000"
 preserveAspectRatio="xMidYMid meet">
<g transform="translate(0.000000,256.000000) scale(0.100000,-0.100000)"
fill="#000000" stroke="none">
<path d="M1223 2544 c-51 -25 -73 -70 -74 -150 l-1 -69 -14 45 c-9 25 -23 62
-31 83 -46 107 -206 101 -241 -11 -13 -39 -12 -49 17 -147 l31 -106 -36 -43
-36 -43 -172 -5 c-159 -4 -176 -7 -215 -29 -108 -60 -128 -213 -39 -296 34
-32 91 -53 143 -53 l46 0 -19 -27 c-41 -59 -85 -160 -108 -251 -36 -141 -31
-389 7 -413 19 -12 25 -11 43 7 12 12 14 25 9 57 -5 23 -7 92 -7 152 1 126 25
228 75 331 42 85 55 95 51 39 -10 -123 77 -212 199 -203 103 7 150 63 185 221
l17 79 46 -7 c66 -10 125 -38 148 -71 22 -31 53 -114 53 -142 0 -35 50 -117
85 -141 87 -58 211 -31 263 57 22 39 27 58 26 112 l-2 64 28 -34 c15 -18 38
-53 51 -76 22 -41 22 -45 7 -77 -9 -18 -39 -59 -68 -90 -52 -57 -58 -81 -25
-94 25 -9 56 12 105 72 l45 54 13 -42 c7 -23 16 -91 19 -150 5 -93 9 -109 25
-118 31 -16 48 6 48 62 0 54 13 69 40 44 25 -23 60 -11 60 20 0 20 -50 76 -92
101 -7 5 -26 47 -42 94 -34 105 -98 217 -171 297 -30 34 -55 64 -55 67 0 5
132 47 188 59 29 7 67 -25 115 -95 66 -95 78 -149 87 -368 6 -141 17 -246 39
-380 17 -102 34 -239 38 -305 6 -124 12 -145 44 -145 51 0 49 102 -7 455 -27
170 -36 258 -39 385 -4 178 -15 241 -62 336 -14 30 -42 72 -60 94 l-34 39 33
14 c39 17 95 77 104 113 4 14 4 49 2 79 -6 68 -43 119 -106 147 -46 21 -53 21
-207 3 -47 -5 -52 -3 -93 33 l-42 38 26 87 c30 102 27 142 -15 189 -52 58
-170 47 -205 -20 -8 -15 -22 -54 -32 -87 l-19 -60 -5 76 c-6 86 -22 118 -73
143 -44 20 -73 20 -114 0z m101 -86 c11 -16 16 -46 16 -99 0 -50 4 -80 13 -87
19 -16 93 -31 108 -22 7 5 26 50 43 102 27 80 35 94 58 102 22 8 32 6 48 -9
26 -24 25 -53 -5 -150 -14 -44 -25 -87 -25 -97 0 -9 18 -31 40 -48 40 -32 40
-33 20 -47 -24 -17 -26 -36 -4 -54 13 -10 34 -9 122 9 146 30 202 29 241 -4
53 -44 51 -132 -4 -168 -13 -8 -81 -27 -151 -41 -133 -27 -269 -77 -287 -106
-8 -12 -4 -36 12 -85 13 -38 25 -94 28 -126 5 -47 2 -61 -16 -86 -45 -64 -143
-63 -182 1 -10 17 -24 56 -30 87 -16 80 -45 134 -94 179 -40 37 -120 71 -167
71 -26 0 -22 18 20 79 68 99 126 123 204 84 60 -29 65 -29 124 4 27 15 63 35
79 43 20 10 31 24 33 42 5 41 -26 44 -95 10 -56 -28 -60 -28 -103 -15 -55 17
-144 12 -189 -11 -89 -47 -172 -186 -217 -366 -19 -74 -34 -113 -52 -132 -48
-51 -121 -45 -165 13 -26 36 -24 104 8 212 48 167 105 276 191 369 24 26 44
54 44 61 0 8 -14 58 -30 112 -35 112 -36 132 -13 157 42 46 80 13 118 -103 33
-104 40 -110 110 -87 l40 13 5 91 c3 55 10 98 19 108 20 24 67 20 85 -6z
m-547 -450 c-41 -94 -76 -176 -80 -190 -6 -15 -20 -18 -96 -18 -102 0 -130 9
-154 50 -33 56 -11 131 46 155 43 19 292 21 284 3z"/>
<path d="M827 1243 c-13 -13 -7 -100 13 -176 19 -71 19 -80 5 -134 -9 -32 -19
-88 -22 -125 -5 -59 -4 -68 12 -74 30 -12 49 10 61 72 7 32 12 61 13 63 1 3
18 -23 39 -57 20 -34 57 -87 81 -118 42 -54 44 -59 42 -119 -3 -77 6 -113 31
-126 31 -17 48 6 48 62 0 50 8 60 29 35 6 -7 29 -26 50 -41 33 -22 43 -25 60
-15 32 16 25 44 -16 76 -60 44 -124 104 -175 164 l-48 55 57 5 c59 5 82 23 70
54 -5 13 -22 16 -91 16 l-85 0 -30 63 c-36 77 -66 175 -76 247 -4 30 -12 61
-17 68 -11 13 -40 16 -51 5z"/>
<path d="M505 974 c-18 -19 -16 -27 33 -143 61 -144 179 -310 321 -452 341
-341 706 -455 1036 -324 152 60 242 156 286 303 11 37 10 45 -3 58 -27 27 -55
9 -73 -49 -39 -122 -137 -214 -274 -258 -101 -33 -273 -38 -379 -11 -346 88
-721 439 -868 813 -31 79 -48 93 -79 63z"/>
</g>
</svg>
